<mxfile host="app.diagrams.net" modified="2024-02-01T08:41:00.605Z" agent="Mozilla/5.0 (Windows NT 10.0; Win64; x64) AppleWebKit/537.36 (KHTML, like Gecko) Chrome/120.0.0.0 Safari/537.36" version="21.7.2" etag="yeNSb6fs7YesCBXjq_XP" type="github">
  <diagram name="第 1 页" id="qi2KAciVVnUMtREdoLuG">
    <mxGraphModel>
      <root>
        <mxCell id="0" />
        <mxCell id="1" parent="0" />
      </root>
    </mxGraphModel>
  </diagram>
</mxfile>
